<?xml version="1.0" encoding="UTF-8"?>
<svg version="1.1" xmlns="http://www.w3.org/2000/svg" width="591" height="296">
<path d="M0 0 C195.03 0 390.06 0 591 0 C591 97.68 591 195.36 591 296 C395.97 296 200.94 296 0 296 C0 198.32 0 100.64 0 0 Z " fill="#FEFEFE" transform="translate(0,0)"/>
<path d="M0 0 C0.75539062 -0.01998047 1.51078125 -0.03996094 2.2890625 -0.06054688 C10.19049459 -0.0537587 16.19291433 3.15833121 22 8.4375 C22.495 9.4275 22.495 9.4275 23 10.4375 C23.33 7.7975 23.66 5.1575 24 2.4375 C29.31901517 1.93092713 31.86484812 3.11139957 36 6.4375 C40.21055537 11.11589485 42.24054269 14.59387328 42.29052734 20.91772461 C42.30328705 22.01664536 42.31604675 23.1155661 42.32919312 24.24778748 C42.33141876 25.43316605 42.33364441 26.61854462 42.3359375 27.83984375 C42.3459227 29.68286827 42.3459227 29.68286827 42.35610962 31.56312561 C42.36624063 34.16812646 42.3709265 36.77315329 42.37060547 39.37817383 C42.37494913 43.32873576 42.41118463 47.27815355 42.44921875 51.22851562 C42.45509296 53.76562121 42.4590583 56.30273206 42.4609375 58.83984375 C42.47530853 60.00700424 42.48967957 61.17416473 42.50448608 62.37669373 C42.44144979 73.92507619 40.12360417 84.86149172 32 93.4375 C31.24783203 94.24960938 31.24783203 94.24960938 30.48046875 95.078125 C21.75587721 103.48430079 9.81666326 105.92136875 -1.8515625 105.71875 C-10.26089364 105.33668134 -17.43047425 101.42070538 -24.7109375 97.48828125 C-27.13731705 96.37446538 -29.37180157 95.86005487 -32 95.4375 C-30.56179187 90.40377156 -28.09754485 88.44794111 -24 85.4375 C-18.669849 83.660783 -13.35649409 83.64497543 -8.1875 85.9375 C-2.00746972 88.53311272 5.65251185 88.65146927 11.9375 86.25 C17.82887017 82.76327072 20.57668354 79.26290231 22.5078125 72.796875 C23.24568813 69.25975689 23.19650181 66.0400332 23 62.4375 C22.52691406 62.90800781 22.05382812 63.37851563 21.56640625 63.86328125 C14.72571896 70.30392835 9.00038264 72.51995592 -0.375 72.875 C-10.9993283 72.55342545 -18.2220125 69.1769006 -25.8359375 61.8046875 C-34.29376439 52.55298516 -35.58314635 42.88511904 -35.3125 30.765625 C-35.04861843 25.62433238 -33.87182859 21.72740545 -31 17.4375 C-30.56429687 16.74527344 -30.12859375 16.05304688 -29.6796875 15.33984375 C-22.45957229 4.78585021 -12.62983574 -0.11853941 0 0 Z " fill="#DF1A23" transform="translate(244,144.5625)"/>
<path d="M0 0 C3.96441739 1.43501763 7.27314167 3.34418115 10.8125 5.625 C21.29490113 12.20020219 32.4461637 17.3066744 43.6887207 22.43139648 C83.62124197 40.65991862 83.62124197 40.65991862 92.09375 60.5703125 C94.06818721 66.40221501 94.35144518 71.88225058 94 78 C93.34 78 92.68 78 92 78 C90.70925452 76.35912126 89.49238973 74.65981448 88.3125 72.9375 C77.11440225 57.29602895 58.86877579 43.85558491 39.9453125 39.2578125 C39.30335938 39.17273438 38.66140625 39.08765625 38 39 C39.16015625 39.61746094 40.3203125 40.23492187 41.515625 40.87109375 C63.66183324 52.80694455 83.16854106 67.46406387 92 92 C92.58183652 94.72385691 92.84204578 97.20947546 93 100 C91.67548828 99.29423828 91.67548828 99.29423828 90.32421875 98.57421875 C79.09499433 92.69741808 68.50973098 89.9174464 55.98754883 88.08886719 C36.66334411 85.2570977 21.90309719 77.93502469 10.0625 62.0625 C-0.88640812 45.09302439 -4.08468446 21.98779801 -0.48730469 2.17651367 C-0.32649414 1.45826416 -0.16568359 0.74001465 0 0 Z " fill="#6AAC41" transform="translate(194,47)"/>
<path d="M0 0 C6.13132904 0.36066641 10.14525593 2.06061393 14.44921875 6.4921875 C18.45203157 11.10287734 19.12567949 14.23026887 19.09765625 20.19921875 C19.09515869 21.28807373 19.09266113 22.37692871 19.09008789 23.4987793 C19.08098389 24.88105713 19.07187988 26.26333496 19.0625 27.6875 C19.041875 32.080625 19.02125 36.47375 19 41 C32.86 41 46.72 41 61 41 C60.84266735 33.13223705 60.84266735 33.13223705 60.63964844 25.265625 C60.56094892 17.42613712 61.53697866 11.93387074 66.78125 5.9765625 C67.63203125 5.30753906 67.63203125 5.30753906 68.5 4.625 C69.35078125 3.93277344 69.35078125 3.93277344 70.21875 3.2265625 C74.22643467 0.4668849 75.86082798 0 81 0 C81 33.66 81 67.32 81 102 C73.68046423 100.95435203 70.03576716 99.49196684 65.25 94.0625 C61.73819303 89.28254051 60.74644493 85.73583925 60.8046875 79.82421875 C60.80968262 78.78096436 60.81467773 77.73770996 60.81982422 76.6628418 C60.83803223 75.350979 60.85624023 74.03911621 60.875 72.6875 C60.91625 68.500625 60.9575 64.31375 61 60 C47.14 60 33.28 60 19 60 C19.15742289 68.52591931 19.15742289 68.52591931 19.36035156 77.05078125 C19.43127371 84.69207105 19.09426437 90.72766412 13.55175781 96.51123047 C10.05842712 99.5813603 6.97945583 101.86189843 2.3125 102.1875 C0 102 0 102 -1 101 C-1.10067034 97.90029236 -1.136143 94.82282329 -1.12939453 91.72265625 C-1.13114685 90.74875946 -1.13289917 89.77486267 -1.13470459 88.77145386 C-1.13912499 85.53511806 -1.13618445 82.2988364 -1.1328125 79.0625 C-1.13348549 76.82430002 -1.13445546 74.58610012 -1.13571167 72.34790039 C-1.1371889 67.65022081 -1.13503329 62.9525602 -1.13037109 58.25488281 C-1.1246738 52.21839386 -1.12795267 46.18194936 -1.13394356 40.14546204 C-1.1375485 35.52168439 -1.13641089 30.89791736 -1.13381577 26.2741394 C-1.13314631 24.04767858 -1.13397556 21.8212168 -1.13629532 19.59475708 C-1.13882074 16.48892645 -1.1349828 13.3831689 -1.12939453 10.27734375 C-1.13141876 9.34743622 -1.13344299 8.41752869 -1.13552856 7.45944214 C-1.11426227 1.11426227 -1.11426227 1.11426227 0 0 Z " fill="#BF0F17" transform="translate(50,119)"/>
<path d="M0 0 C8.07612491 5.28793893 12.10976134 12.84480367 15.375 21.75 C16.30907838 28.10173295 16 34.57995219 16 41 C-1.82 41.33 -19.64 41.66 -38 42 C-34.86955473 48.26089054 -32.46978044 51.4159698 -26.125 54.3125 C-20.10909732 55.63599859 -16.0000989 55.66958329 -10.5 53 C-5.24042858 50.47828767 -1.28645188 50.01682616 4.32421875 51.6953125 C9.68362402 53.80364052 12.78449258 56.22860189 16 61 C16 61.66 16 62.32 16 63 C15.39414062 63.08636719 14.78828125 63.17273438 14.1640625 63.26171875 C8.33591731 64.23905387 3.677431 65.8991527 -1.48046875 68.78125 C-11.5949621 73.67384213 -23.93398847 73.41612369 -34.51171875 70.03125 C-43.32827829 66.37729126 -51.25497611 59.85499315 -55.3515625 51.1171875 C-56.34812085 48.42863079 -57.23030956 45.76131882 -58 43 C-58.19078125 42.35804688 -58.3815625 41.71609375 -58.578125 41.0546875 C-60.88068176 29.84038328 -58.12446658 19.8340786 -52.3125 10.25 C-40.40160282 -6.4371968 -17.40575604 -10.49150632 0 0 Z " fill="#E91C25" transform="translate(373,150)"/>
<path d="M0 0 C8.9796557 7.66846703 13.38885588 15.31883274 15.2109375 27.01171875 C15.4646496 31.02959587 15.56528175 34.9980887 15.2109375 39.01171875 C14.2109375 40.01171875 14.2109375 40.01171875 12.04063416 40.13197327 C11.08355057 40.12975266 10.12646698 40.12753204 9.14038086 40.12524414 C8.05933578 40.12516861 6.97829071 40.12509308 5.86448669 40.12501526 C4.1004525 40.11727333 4.1004525 40.11727333 2.30078125 40.109375 C1.10360977 40.10796005 -0.09356171 40.1065451 -1.32701111 40.10508728 C-5.16855316 40.09946854 -9.01003793 40.08691286 -12.8515625 40.07421875 C-15.44856687 40.06920616 -18.04557215 40.06464284 -20.64257812 40.06054688 C-27.02475929 40.04949302 -33.4069068 40.03273667 -39.7890625 40.01171875 C-39.17040569 41.30941178 -38.54480246 42.60379483 -37.91625977 43.89672852 C-37.56862076 44.61788345 -37.22098175 45.33903839 -36.86280823 46.08204651 C-35.51965501 48.49588194 -34.1457053 49.63943238 -31.7265625 50.94921875 C-30.71916016 51.51962891 -30.71916016 51.51962891 -29.69140625 52.1015625 C-25.42368694 54.14340767 -21.44437358 54.6192763 -16.7890625 54.01171875 C-15.12268268 53.39821235 -13.47642799 52.72797565 -11.8515625 52.01171875 C-7.03503253 49.95381391 -2.99095652 48.9319032 2.2109375 50.01171875 C7.8567802 52.40661593 11.646955 56.11124281 15.2109375 61.01171875 C15.2109375 61.34171875 15.2109375 61.67171875 15.2109375 62.01171875 C14.35435547 62.12386719 14.35435547 62.12386719 13.48046875 62.23828125 C6.76505436 63.32726737 1.18247458 65.67152759 -4.90625 68.671875 C-13.74903681 72.78173391 -26.38174551 72.3561194 -35.4921875 69.0390625 C-46.3245522 64.19397421 -53.93695804 57.63056005 -58.2890625 46.32421875 C-61.53528375 35.1139347 -61.03273778 23.00992294 -55.53515625 12.6484375 C-50.23299414 4.05228912 -42.45761327 -3.04506005 -32.4921875 -5.5703125 C-21.23941491 -7.31026433 -9.50626887 -6.77687795 0 0 Z " fill="#EB1C26" transform="translate(525.7890625,150.98828125)"/>
<path d="M0 0 C7.80950058 5.34021087 11.45636961 11.86996888 13.875 20.9375 C14.35907418 25.10342404 14.34565864 29.19738691 14.265625 33.38671875 C14.25996521 34.52534866 14.25430542 35.66397858 14.24847412 36.83711243 C14.22628579 40.43352331 14.17612144 44.02889601 14.125 47.625 C14.10491238 50.08006362 14.0866656 52.53514304 14.0703125 54.99023438 C14.02647872 60.9730037 13.95974456 66.95517765 13.875 72.9375 C8.46915511 73.13298257 6.14420778 72.38919991 1.875 68.9375 C-3.82043746 63.21068272 -5.40905405 58.13116311 -5.46875 50.1875 C-5.4833728 49.45176758 -5.49799561 48.71603516 -5.51306152 47.95800781 C-5.5749848 44.82764488 -5.6148325 41.69709068 -5.65673828 38.56640625 C-5.69060168 36.27323402 -5.73567695 33.98046465 -5.78125 31.6875 C-5.7865271 30.9852832 -5.7918042 30.28306641 -5.79724121 29.55957031 C-5.87700086 25.61039002 -6.25175411 22.44539295 -8.125 18.9375 C-13.33662881 15.95684574 -19.31042743 16.31507285 -25.125 16.9375 C-29.90542538 19.0341778 -31.57220512 21.22172513 -33.51611328 26.00192261 C-34.50379407 29.14164063 -34.51290134 32.13429521 -34.53125 35.41015625 C-34.54208618 36.09629501 -34.55292236 36.78243378 -34.56408691 37.48936462 C-34.60950503 40.392016 -34.62139486 43.2945673 -34.63623047 46.19750977 C-34.65200553 48.33120672 -34.68500898 50.46417963 -34.71875 52.59765625 C-34.72583984 53.86230713 -34.73292969 55.12695801 -34.74023438 56.42993164 C-35.31768919 61.69407711 -37.3372762 65.74689304 -41.3125 69.25 C-42.10720703 69.98669922 -42.10720703 69.98669922 -42.91796875 70.73828125 C-46.20272431 72.52309533 -49.4174579 72.52945709 -53.125 72.9375 C-53.26434353 64.58357649 -53.37079249 56.23014267 -53.43587303 47.87534237 C-53.46711722 43.99533323 -53.5094595 40.11612214 -53.57763672 36.23657227 C-53.64308216 32.48879276 -53.67875799 28.7417782 -53.69426346 24.99347115 C-53.70530526 23.56730679 -53.7268684 22.14118186 -53.75938034 20.71534538 C-54.03434453 8.15087298 -54.03434453 8.15087298 -50.21337891 3.56860352 C-46.84039422 0.35373452 -44.63614901 -0.18443781 -40 -0.125 C-39.08992188 -0.11597656 -38.17984375 -0.10695312 -37.2421875 -0.09765625 C-36.19417969 -0.08025391 -36.19417969 -0.08025391 -35.125 -0.0625 C-34.795 2.2475 -34.465 4.5575 -34.125 6.9375 C-33.60550781 6.45539063 -33.08601563 5.97328125 -32.55078125 5.4765625 C-31.85339844 4.84492188 -31.15601563 4.21328125 -30.4375 3.5625 C-29.75300781 2.93601563 -29.06851562 2.30953125 -28.36328125 1.6640625 C-21.09639065 -3.94146219 -8.07008686 -4.1865297 0 0 Z " fill="#EA1D27" transform="translate(447.125,147.0625)"/>
<path d="M0 0 C-1.86306129 6.52746765 -3.993721 12.85327113 -6.51953125 19.15234375 C-6.85474792 19.99846725 -7.1899646 20.84459076 -7.53533936 21.71635437 C-8.62311928 24.45859513 -9.7171501 27.19827489 -10.8125 29.9375 C-11.96125952 32.81533583 -13.10967059 35.69331042 -14.25791931 38.5713501 C-15.03521699 40.51929694 -15.81310195 42.46700953 -16.59156799 44.41448975 C-18.76772157 49.86856641 -20.909719 55.33378553 -23.00666809 60.81880188 C-24.22752844 64.01029661 -25.46235657 67.19629558 -26.69857788 70.38186646 C-27.26696693 71.85766216 -27.82870764 73.33603859 -28.38320923 74.81710815 C-32.18846153 84.96808707 -36.32054527 94.45819526 -46.5625 99.5 C-50.35863336 100.94991205 -53.95922442 101.65610421 -58 102 C-57.35019702 98.05308215 -56.14822708 94.65735028 -54.59375 90.9765625 C-53.85596313 89.21614624 -53.85596313 89.21614624 -53.10327148 87.42016602 C-52.84198456 86.80199005 -52.58069763 86.18381409 -52.31149292 85.54690552 C-50.92644489 82.26661633 -49.5594987 78.97879493 -48.19140625 75.69140625 C-47.91635757 75.03117966 -47.6413089 74.37095306 -47.35792542 73.6907196 C-44.99270681 68.00414896 -42.68579595 62.29640567 -40.4375 56.5625 C-40.08582764 55.66732666 -39.73415527 54.77215332 -39.37182617 53.84985352 C-37.22636157 48.3267939 -35.19232118 42.77087464 -33.2109375 37.1875 C-32.72482661 35.82734402 -32.23857978 34.46723661 -31.75219727 33.10717773 C-30.81189323 30.47663709 -29.89069206 27.84045642 -28.98022461 25.19946289 C-25.8450819 16.39254601 -22.5421867 8.63244661 -14.3125 3.5625 C-13.56613281 3.08941406 -12.81976563 2.61632812 -12.05078125 2.12890625 C-7.96366497 -0.12095395 -4.58764843 -0.0865594 0 0 Z " fill="#D31820" transform="translate(213,145)"/>
<path d="M0 0 C4.57768544 0.54966579 7.90783194 2.51344458 11.6875 5 C12.30181885 5.40009277 12.9161377 5.80018555 13.54907227 6.21240234 C19.1874346 9.97131056 24.14075844 14.28059273 29 19 C29.63421875 19.57234375 30.2684375 20.1446875 30.921875 20.734375 C40.44558052 29.58383588 48.25766044 42.88533442 49 56 C48.11699219 55.52949219 47.23398437 55.05898437 46.32421875 54.57421875 C35.09499433 48.69741808 24.50973098 45.9174464 11.98754883 44.08886719 C-7.37346693 41.25170341 -7.37346693 41.25170341 -13 35 C-12.34 33.68 -11.68 32.36 -11 31 C-10.34 31 -9.68 31 -9 31 C-8.9175 30.278125 -8.835 29.55625 -8.75 28.8125 C-7.85249799 25.44686746 -6.2885722 23.58387184 -4 21 C-2.68 21.33 -1.36 21.66 0 22 C-0.825 22.721875 -1.65 23.44375 -2.5 24.1875 C-5.22257969 26.72431754 -5.22257969 26.72431754 -5.375 29.75 C-5.23007345 31.96367261 -5.23007345 31.96367261 -4 33 C-2.2675 33.2475 -2.2675 33.2475 -0.5 33.5 C3 34 3 34 4 35 C7.5 35.16666667 7.5 35.16666667 11 35 C11.33 34.67 11.66 34.34 12 34 C10.68 33.34 9.36 32.68 8 32 C9.98 31.34 11.96 30.68 14 30 C14 28.68 14 27.36 14 26 C10.22687995 25.64901209 8.46488965 25.69359546 5.25 27.8125 C2.8592569 29.98371615 2.8592569 29.98371615 1 33 C0.34 31.68 -0.32 30.36 -1 29 C-0.195625 28.2575 0.60875 27.515 1.4375 26.75 C3.76988591 24.24695171 4.63534394 23.2819045 5 20 C3.35 19.67 1.7 19.34 0 19 C2.85276137 16.06799526 5.65079784 13.35684596 9 11 C6.36 9.68 3.72 8.36 1 7 C1 6.01 1 5.02 1 4 C0.01 4 -0.98 4 -2 4 C-1.34 2.68 -0.68 1.36 0 0 Z " fill="#3B8D42" transform="translate(238,91)"/>
<path d="M0 0 C4.64901102 2.65791943 7.40697168 6.05785351 10 10.75 C11.74397481 17.40881291 10.91364717 23.36146168 7.6875 29.375 C3.73681826 34.17988319 -0.08874707 37.03782176 -6.375 37.6953125 C-11.39659432 37.86650322 -15.21429955 37.88487878 -19.8125 35.75 C-25.56092616 30.28899515 -28.8965095 25.95089549 -29.625 17.9375 C-29.02680159 11.11803812 -26.10843268 6.17093268 -21.3125 1.375 C-14.6231048 -2.55993835 -7.12076615 -3.21106247 0 0 Z " fill="#FEF9F9" transform="translate(256.3125,162.625)"/>
<path d="M0 0 C0.09300645 7.68473708 0.16391952 15.36941521 0.20724869 23.05458832 C0.22805315 26.62383519 0.25623769 30.19269474 0.30175781 33.76171875 C0.345474 37.21120466 0.36919071 40.66031992 0.37950897 44.11006165 C0.39041005 46.05539182 0.42159466 48.00057452 0.45318604 49.94567871 C0.45499305 57.12676768 -0.07521815 61.91855372 -4 68 C-5.9296875 69.875 -5.9296875 69.875 -7.875 71 C-8.83019531 71.5878125 -8.83019531 71.5878125 -9.8046875 72.1875 C-12.60357595 73.22338754 -15.03645473 73.05256843 -18 73 C-18.11625699 65.31533361 -18.20489817 57.63075932 -18.25906086 49.94541168 C-18.28506727 46.37605043 -18.32029728 42.80729431 -18.37719727 39.23828125 C-18.43184284 35.78877383 -18.46148778 32.33984547 -18.47438622 28.88993835 C-18.48801305 26.94453817 -18.52699448 24.9993684 -18.56648254 23.05432129 C-18.56878283 15.74125012 -17.98096388 10.57654537 -13 5 C-8.46801467 0.8895947 -6.0796116 -0.13216547 0 0 Z " fill="#E31B23" transform="translate(309,145)"/>
<path d="M0 0 C1.8175155 1.72663973 3.32061899 3.43046703 4.82421875 5.44921875 C7.24708651 8.28967233 9.63257142 9.87351916 12.8125 11.8125 C19.12778701 15.90702674 24.04048513 20.08097025 27.4375 26.875 C28.22770299 31.26501661 28.1581917 35.55305563 28 40 C25.93323821 37.30713096 24.06348634 34.55545732 22.25 31.6875 C18.83779907 26.5394163 15.02394439 21.00798146 9 19 C9.49628906 19.44988281 9.99257812 19.89976562 10.50390625 20.36328125 C18.45983755 27.89650652 26.44764346 37.75633923 27.20703125 49.08984375 C27.31532445 57.3693511 27.31532445 57.3693511 26 60 C20.70122324 60.50464541 18.09283425 59.36521927 14 56 C11.07324013 52.29277083 10.6740052 49.67259219 11 45 C14 44 14 44 17 45 C13.38252585 41.83471012 9.77868849 38.80531226 5.875 36 C1.18817014 32.53029262 -2.82813433 28.51976342 -5 23 C-5.75024472 16.14513249 -6.31139717 9.07651763 -2.5 3.0625 C-1.675 2.051875 -0.85 1.04125 0 0 Z " fill="#71B043" transform="translate(142,145)"/>
<path d="M0 0 C7.98737909 0 13.2501771 2.99262483 20 7 C21.32 7.66 22.64 8.32 24 9 C21.03 11.31 18.06 13.62 15 16 C16.65 16.66 18.3 17.32 20 18 C19.52797514 22.24822374 17.03344482 24.19989709 14 27 C14.33 27.99 14.66 28.98 15 30 C15.78375 29.030625 16.5675 28.06125 17.375 27.0625 C18.91288705 25.16037654 19.79259913 24.10370043 22 23 C23.99960012 22.960008 26.00047242 22.95653201 28 23 C28.495 25.475 28.495 25.475 29 28 C27.02 28.99 27.02 28.99 25 30 C25.66 30.66 26.32 31.32 27 32 C25 34 25 34 21.4375 34.1875 C18 34 18 34 17 33 C15.865625 32.855625 14.73125 32.71125 13.5625 32.5625 C10 32 10 32 8 30 C7.5625 27.6875 7.5625 27.6875 8 25 C10.5 22.1875 10.5 22.1875 13 20 C12.01 20 11.02 20 10 20 C8.5305191 21.76732099 8.5305191 21.76732099 7.3125 24 C6.87550781 24.7425 6.43851563 25.485 5.98828125 26.25 C5.66214844 26.8275 5.33601562 27.405 5 28 C3.68 27.67 2.36 27.34 1 27 C1.58812391 23.68107371 2.62739584 21.97321601 4.94140625 19.546875 C5.52470703 18.928125 6.10800781 18.309375 6.70898438 17.671875 C7.32064453 17.03765625 7.93230469 16.4034375 8.5625 15.75 C9.17802734 15.1003125 9.79355469 14.450625 10.42773438 13.78125 C11.94543158 12.18119713 13.46957115 10.58786356 15 9 C14.01 8.67 13.02 8.34 12 8 C10.41348318 9.55926748 8.83092685 11.12256518 7.25 12.6875 C6.36828125 13.55761719 5.4865625 14.42773438 4.578125 15.32421875 C2.21194702 17.78002468 0.08107444 20.30141048 -2 23 C-3.32 22.67 -4.64 22.34 -6 22 C-5.41503796 18.81150227 -4.5016539 17.1070041 -2.27734375 14.765625 C-1.73916016 14.19199219 -1.20097656 13.61835937 -0.64648438 13.02734375 C-0.08251953 12.44082031 0.48144531 11.85429688 1.0625 11.25 C1.63033203 10.64800781 2.19816406 10.04601562 2.78320312 9.42578125 C4.18231575 7.94436788 5.59030947 6.4713512 7 5 C3.31702134 5.6208622 1.42311971 6.06674982 -1 9 C-1.66 8.34 -2.32 7.68 -3 7 C-2.67028521 3.70285207 -2.3773161 2.3773161 0 0 Z " fill="#F2FBEC" transform="translate(224,93)"/>
<path d="M0 0 C2.75347128 2.514039 3.82748627 4.40778307 4.23828125 8.19921875 C4.42296515 14.39098937 3.62019643 18.89123596 0 24 C-3.44519073 27.44519073 -7.64749995 29.56538393 -11.9140625 31.8515625 C-14.1962043 33.06968349 -14.1962043 33.06968349 -17 35 C-17.82292255 28.69092711 -15.73978081 25.291053 -12.3125 20.0390625 C-10.90979234 18.26401599 -10.90979234 18.26401599 -11 17 C-11.98058352 18.45738102 -12.95942132 19.91593675 -13.9375 21.375 C-14.48277344 22.18710938 -15.02804687 22.99921875 -15.58984375 23.8359375 C-17.01093879 25.92719184 -17.01093879 25.92719184 -18 28 C-18.66 28 -19.32 28 -20 28 C-20.74913933 22.00688536 -18.45996027 18.6281277 -15 14 C-12.53196333 11.34002334 -9.89427788 8.91408324 -7.1875 6.5 C-6.49462891 5.86835937 -5.80175781 5.23671875 -5.08789062 4.5859375 C-3.39932297 3.04875867 -1.70354755 1.52053237 0 0 Z " fill="#71AF47" transform="translate(310,111)"/>
<path d="M0 0 C3.13994939 2.51335195 5.19030291 5.73092782 6.76171875 9.41015625 C6.76171875 10.40015625 6.76171875 11.39015625 6.76171875 12.41015625 C-5.11828125 12.41015625 -16.99828125 12.41015625 -29.23828125 12.41015625 C-28.01567914 6.29714568 -25.6430306 3.62545401 -21.23828125 -0.58984375 C-15.08611803 -4.58043611 -6.16301522 -3.48779157 0 0 Z " fill="#FEF6F7" transform="translate(515.23828125,163.58984375)"/>
<path d="M0 0 C3.3599964 1.93454338 5.61480221 3.93536771 7.625 7.3125 C8.12 10.2825 8.12 10.2825 8.625 13.3125 C-3.255 13.3125 -15.135 13.3125 -27.375 13.3125 C-25.23616321 6.89598964 -23.23064979 3.30481381 -17.6875 -0.5625 C-11.64023501 -2.61628811 -5.86200953 -2.6903999 0 0 Z " fill="#FEF7F8" transform="translate(361.375,162.6875)"/>
<path d="M0 0 C7.91893374 5.97960303 15.05361799 15.01809593 17 25 C17.7090301 35.5819398 17.7090301 35.5819398 16 39 C10.70122324 39.50464541 8.09283425 38.36521927 4 35 C1.07324013 31.29277083 0.6740052 28.67259219 1 24 C4 23 4 23 7 24 C6.48308594 23.74089844 5.96617187 23.48179687 5.43359375 23.21484375 C2.97893644 21.64405522 1.58608523 20.4727943 0 18 C-0.23157338 13.93654253 0.11360065 10.40115187 0.6328125 6.36328125 C1.23551436 3.01100821 1.23551436 3.01100821 0 0 Z " fill="#388154" transform="translate(152,166)"/>
<path d="M0 0 C6.6 0.6 6.6 0.6 9 3 C6 3 6 3 1 2 C1 34.67 1 67.34 1 101 C2.32 101.33 3.64 101.66 5 102 C3.33388095 102.042721 1.66617115 102.04063832 0 102 C-1.94081408 100.05918592 -1.12687049 97.12385021 -1.13552856 94.54055786 C-1.13350433 93.61065033 -1.1314801 92.6807428 -1.12939453 91.72265625 C-1.13114685 90.74875946 -1.13289917 89.77486267 -1.13470459 88.77145386 C-1.13912499 85.53511806 -1.13618445 82.2988364 -1.1328125 79.0625 C-1.13348549 76.82430002 -1.13445546 74.58610012 -1.13571167 72.34790039 C-1.1371889 67.65022081 -1.13503329 62.9525602 -1.13037109 58.25488281 C-1.1246738 52.21839386 -1.12795267 46.18194936 -1.13394356 40.14546204 C-1.1375485 35.52168439 -1.13641089 30.89791736 -1.13381577 26.2741394 C-1.13314631 24.04767858 -1.13397556 21.8212168 -1.13629532 19.59475708 C-1.13882074 16.48892645 -1.1349828 13.3831689 -1.12939453 10.27734375 C-1.13141876 9.34743622 -1.13344299 8.41752869 -1.13552856 7.45944214 C-1.11426227 1.11426227 -1.11426227 1.11426227 0 0 Z " fill="#B8494E" transform="translate(50,119)"/>
<path d="M0 0 C2.64107354 2.46741391 3.79641403 4.57440916 5 8 C4.34 8 3.68 8 3 8 C3.13942681 11.56278089 3.28767078 15.1251426 3.4375 18.6875 C3.47681641 19.69490234 3.51613281 20.70230469 3.55664062 21.74023438 C3.61948242 23.20493164 3.61948242 23.20493164 3.68359375 24.69921875 C3.72025146 25.59471436 3.75690918 26.49020996 3.79467773 27.4128418 C4.00061751 30.00778088 4.43767822 32.46054684 5 35 C3.8851448 34.13865982 2.78361681 33.26006326 1.6875 32.375 C1.07261719 31.88773438 0.45773438 31.40046875 -0.17578125 30.8984375 C-5.62598582 25.22649013 -5.55525964 19.13053359 -5.4375 11.66015625 C-4.82694541 6.55221292 -3.21931147 3.94365656 0 0 Z " fill="#8FC347" transform="translate(142,145)"/>
<path d="M0 0 C0.66 2.64 1.32 5.28 2 8 C2.66 8 3.32 8 4 8 C2.62851297 11.30276468 1.33884452 12.72810469 -1.75 14.5 C-2.45898438 14.91765625 -3.16796875 15.3353125 -3.8984375 15.765625 C-4.59195312 16.17296875 -5.28546875 16.5803125 -6 17 C-7.13104187 17.74085712 -8.25682535 18.48986156 -9.375 19.25 C-12 21 -12 21 -14 22 C-14.9111923 15.0141924 -12.12664933 10.52709594 -8 5 C-3.24553571 0 -3.24553571 0 0 0 Z " fill="#479440" transform="translate(307,124)"/>
<path d="M0 0 C4.73832292 0.09670047 7.25288444 0.781624 10.75 4.0625 C16.30417093 10.20329123 17.36260064 15.96348444 17.10546875 24.09375 C17.07066406 24.7228125 17.03585938 25.351875 17 26 C14.94850258 23.32884207 13.10223692 20.60127143 11.3125 17.75 C8.5423982 13.50762747 5.33991131 10.25295598 1.5390625 6.921875 C-0.41274181 4.48459652 -0.30438938 3.0438938 0 0 Z " fill="#2E8048" transform="translate(153,159)"/>
<path d="M0 0 C4.93922083 4.93922083 5.2021853 14.03328766 5.25 20.6875 C5.16996047 25.83003953 5.16996047 25.83003953 4 27 C2.28225833 27.12307311 0.55957261 27.17786558 -1.16235352 27.20532227 C-2.81395226 27.2352401 -2.81395226 27.2352401 -4.49891663 27.26576233 C-6.29576149 27.29083107 -6.29576149 27.29083107 -8.12890625 27.31640625 C-9.34827377 27.33718735 -10.5676413 27.35796844 -11.82395935 27.37937927 C-15.73674645 27.44500428 -19.64960317 27.50381972 -23.5625 27.5625 C-26.20768962 27.60567291 -28.85287209 27.64928678 -31.49804688 27.69335938 C-37.99862336 27.8006988 -44.49926979 27.90244067 -51 28 C-51 27.01 -51 26.02 -51 25 C-33.18 25 -15.36 25 3 25 C2.40319286 13.88332392 2.40319286 13.88332392 0 4 C0 2.68 0 1.36 0 0 Z " fill="#DF5258" transform="translate(536,164)"/>
<path d="M0 0 C0.495 0.99 0.495 0.99 1 2 C0.54765991 3.35387817 0.54765991 3.35387817 0.08618164 4.73510742 C-1.02784574 8.08369995 -1.29517566 10.72455806 -1.37890625 14.23828125 C-1.41306641 15.38748047 -1.44722656 16.53667969 -1.48242188 17.72070312 C-1.50884766 18.90599609 -1.53527344 20.09128906 -1.5625 21.3125 C-1.62212895 23.68370237 -1.68570572 26.05480994 -1.75390625 28.42578125 C-1.77783447 29.47161377 -1.8017627 30.51744629 -1.82641602 31.5949707 C-2 34 -2 34 -3 35 C-6.10251201 35.08874135 -9.1826812 35.11518455 -12.28515625 35.09765625 C-13.21597519 35.0962413 -14.14679413 35.09482635 -15.1058197 35.09336853 C-18.09141191 35.08775172 -21.07693029 35.0751964 -24.0625 35.0625 C-26.08137913 35.05748716 -28.10025943 35.05292388 -30.11914062 35.04882812 C-35.07945572 35.03777683 -40.03971532 35.02050095 -45 35 C-45.33 34.34 -45.66 33.68 -46 33 C-32.14 33 -18.28 33 -4 33 C-4.15733265 25.13223705 -4.15733265 25.13223705 -4.36035156 17.265625 C-4.4298785 10.33984474 -3.6761663 5.90502303 0 0 Z " fill="#C74E53" transform="translate(115,127)"/>
<path d="M0 0 C4.875 1.75 4.875 1.75 6 4 C4.68 4 3.36 4 2 4 C2 14.89 2 25.78 2 37 C2.66 37 3.32 37 4 37 C4 39.31 4 41.62 4 44 C4.66 44.33 5.32 44.66 6 45 C6.0825 45.969375 6.165 46.93875 6.25 47.9375 C6.74126146 52.59003499 9.19212272 55.93112243 11.72265625 59.765625 C13 62 13 62 13 65 C-1.31801735 48.27104502 -2.34695146 26.03897371 -1 5 C-0.69633498 3.32767334 -0.37135009 1.65861026 0 0 Z " fill="#9BC45C" transform="translate(194,47)"/>
<path d="M0 0 C2 4 2 4 2 19 C-16.15 19 -34.3 19 -53 19 C-53 18.34 -53 17.68 -53 17 C-35.51 17 -18.02 17 0 17 C0 11.39 0 5.78 0 0 Z " fill="#DC4D54" transform="translate(387,172)"/>
<path d="M0 0 C0.33 1.65 0.66 3.3 1 5 C-0.98 5.99 -0.98 5.99 -3 7 C-2.34 7.66 -1.68 8.32 -1 9 C-3 11 -3 11 -6.25 11.25 C-9.8681282 11.00879145 -12.63895322 10.31162801 -16 9 C-15.34 8.01 -14.68 7.02 -14 6 C-13.67 6.33 -13.34 6.66 -13 7 C-12.21625 6.030625 -11.4325 5.06125 -10.625 4.0625 C-7.33466755 -0.00712172 -5.21729151 -0.11341938 0 0 Z " fill="#ECF9E9" transform="translate(252,116)"/>
<path d="M0 0 C9.70692194 3.27544642 15.38759541 12.33591452 20 21 C20 17.7 20 14.4 20 11 C20.66 11 21.32 11 22 11 C22.8723412 13.99480917 23.10829766 16.63575911 23.0625 19.75 C23.05347656 20.54921875 23.04445312 21.3484375 23.03515625 22.171875 C23.02355469 22.77515625 23.01195312 23.3784375 23 24 C21.68 24 20.36 24 19 24 C18.67 24.66 18.34 25.32 18 26 C17.69449219 25.27296875 17.38898438 24.5459375 17.07421875 23.796875 C13.52605977 16.00092006 9.23356418 10.48064796 3.29296875 4.3984375 C1 2 1 2 0 0 Z " fill="#CFEBD2" transform="translate(149,162)"/>
<path d="M0 0 C6.12572943 6.96105617 5.23646014 15.26411154 5 24 C3.35 23.67 1.7 23.34 0 23 C0 19.66666667 0 16.33333333 0 13 C-0.165 12.195625 -0.33 11.39125 -0.5 10.5625 C-1.23966902 6.77169629 -0.80674688 3.73120431 0 0 Z " fill="#197D3B" transform="translate(162,180)"/>
<path d="M0 0 C3.13367321 1.50041211 5.15276581 3.03088535 7 6 C7.33276463 11.44231188 6.76136233 16.61288169 6 22 C4.02 20.68 2.04 19.36 0 18 C0.08378906 16.95199219 0.16757813 15.90398437 0.25390625 14.82421875 C0.35708794 13.44533619 0.45993506 12.06642857 0.5625 10.6875 C0.61857422 9.99720703 0.67464844 9.30691406 0.73242188 8.59570312 C0.96581505 5.37487726 1.03224218 3.09672655 0 0 Z " fill="#529A44" transform="translate(152,166)"/>
<path d="M0 0 C0 1.32 0 2.64 0 4 C-0.61488281 4.33773437 -1.22976563 4.67546875 -1.86328125 5.0234375 C-2.67152344 5.46945313 -3.47976563 5.91546875 -4.3125 6.375 C-5.11300781 6.81585938 -5.91351563 7.25671875 -6.73828125 7.7109375 C-8.53527943 8.73513335 -10.27900708 9.85267138 -12 11 C-12.29363808 6.00815264 -12.07836372 3.02555256 -9 -1 C-5.79937313 -2.60031344 -3.27728194 -1.03173691 0 0 Z " fill="#1C7148" transform="translate(305,135)"/>
<path d="M0 0 C2.1875 0.3125 2.1875 0.3125 4 1 C-0.59474404 6.39882424 -5.27676273 11.71333087 -10 17 C-11.32 16.34 -12.64 15.68 -14 15 C-12.23000902 13.06172464 -10.45904239 11.12435656 -8.6875 9.1875 C-8.18798828 8.64029297 -7.68847656 8.09308594 -7.17382812 7.52929688 C-5.78777469 6.01473517 -4.39413878 4.50712253 -3 3 C-2.47019531 2.35675781 -1.94039062 1.71351562 -1.39453125 1.05078125 C-0.93433594 0.70402344 -0.47414062 0.35726562 0 0 Z " fill="#77AC58" transform="translate(236,100)"/>
<path d="M0 0 C2.2477975 2.05233685 3.0022242 3.00667261 4 6 C4.06802967 7.72795352 4.08495645 9.45835365 4.0625 11.1875 C4.05347656 12.08855469 4.04445313 12.98960938 4.03515625 13.91796875 C4.02355469 14.60503906 4.01195312 15.29210937 4 16 C3.01 15.67 2.02 15.34 1 15 C-0.1875 11.4375 -0.1875 11.4375 -1 8 C-2.98 8 -4.96 8 -7 8 C-6.02133662 6.85373678 -5.04205413 5.70800212 -4.0625 4.5625 C-3.51722656 3.92441406 -2.97195313 3.28632812 -2.41015625 2.62890625 C-1.63204305 1.73008851 -0.84063472 0.84063472 0 0 Z " fill="#91C251" transform="translate(310,111)"/>
<path d="M0 0 C0.94875 0.350625 1.8975 0.70125 2.875 1.0625 C5.87060172 2.35026777 5.87060172 2.35026777 8 1 C8.33 2.32 8.66 3.64 9 5 C7.35 4.67 5.7 4.34 4 4 C3.67 6.31 3.34 8.62 3 11 C3.66 11 4.32 11 5 11 C5 11.66 5 12.32 5 13 C5.66 13 6.32 13 7 13 C6.67 13.66 6.34 14.32 6 15 C0.20731707 10.73170732 0.20731707 10.73170732 -1 7 C-1.1875 3.8125 -1.1875 3.8125 -1 1 C-0.67 0.67 -0.34 0.34 0 0 Z " fill="#61A05A" transform="translate(154,189)"/>
<path d="M0 0 C-0.39832031 0.50789063 -0.79664063 1.01578125 -1.20703125 1.5390625 C-4.28566175 5.53903498 -6.91595614 9.36879143 -9 14 C-9.66 14 -10.32 14 -11 14 C-11.65450987 8.76392104 -10.09690299 5.90953174 -7.38671875 1.63671875 C-4.97797524 -1.20627712 -3.42474424 -1.14158141 0 0 Z " fill="#357F4D" transform="translate(301,125)"/>
<path d="M0 0 C17.82 0 35.64 0 54 0 C54 0.33 54 0.66 54 1 C53.04826401 1.00879936 53.04826401 1.00879936 52.07730103 1.01777649 C45.49133974 1.08156152 38.9058739 1.16594167 32.3203125 1.26245117 C29.86041788 1.29576766 27.40044558 1.32377836 24.94042969 1.34643555 C21.4104695 1.37985781 17.88122566 1.43216766 14.3515625 1.48828125 C13.24632233 1.49467117 12.14108215 1.5010611 11.00234985 1.50764465 C9.98144257 1.52743881 8.96053528 1.54723297 7.90869141 1.56762695 C6.55633896 1.58428154 6.55633896 1.58428154 5.17666626 1.60127258 C4.09921646 1.79864265 4.09921646 1.79864265 3 2 C2.01 3.485 2.01 3.485 1 5 C0.67 3.35 0.34 1.7 0 0 Z " fill="#FEEFF1" transform="translate(486,191)"/>
<path d="M0 0 C1.19109375 0.14695312 1.19109375 0.14695312 2.40625 0.296875 C3.59734375 0.42835937 3.59734375 0.42835937 4.8125 0.5625 C6.90625 1.046875 6.90625 1.046875 8.90625 3.046875 C8.24625 3.706875 7.58625 4.366875 6.90625 5.046875 C5.9575 5.005625 5.00875 4.964375 4.03125 4.921875 C0.78788407 4.73180238 0.78788407 4.73180238 -1.46875 7.046875 C-2.005 7.706875 -2.54125 8.366875 -3.09375 9.046875 C-3.75375 8.386875 -4.41375 7.726875 -5.09375 7.046875 C-4.72696911 3.3790661 -4.31346335 0.09657008 0 0 Z " fill="#F0FAE8" transform="translate(226.09375,92.953125)"/>
<path d="M0 0 C1.1846401 3.5539203 0.73545032 5.34055776 0.0625 9 C-1.33531632 17.48134499 -1.50491571 25.53484916 0 34 C-4.21200133 29.78799867 -4.18584938 23.36201861 -4.375 17.6875 C-4.29905825 11.18688647 -2.64504837 5.89231758 0 0 Z " fill="#D83D45" transform="translate(318,165)"/>
<path d="M0 0 C1.98828125 1.28515625 1.98828125 1.28515625 4 3 C4.1875 6.4375 4.1875 6.4375 4 10 C4.309375 11.11375 4.309375 11.11375 4.625 12.25 C4.74875 12.8275 4.8725 13.405 5 14 C4.01 15.485 4.01 15.485 3 17 C2.01 16.67 1.02 16.34 0 16 C-0.9360342 12.20732808 -0.98276252 9.06325435 -0.5625 5.1875 C-0.40974609 3.72376953 -0.40974609 3.72376953 -0.25390625 2.23046875 C-0.12822266 1.12638672 -0.12822266 1.12638672 0 0 Z " fill="#3D8D42" transform="translate(158,173)"/>
<path d="M0 0 C4.875 1.75 4.875 1.75 6 4 C4.68 4 3.36 4 2 4 C2 12.58 2 21.16 2 30 C1.67 30 1.34 30 1 30 C0.25015295 25.99908596 -0.1195296 22.23250483 -0.09765625 18.1640625 C-0.09443359 17.10058594 -0.09121094 16.03710938 -0.08789062 14.94140625 C-0.07951172 13.84699219 -0.07113281 12.75257812 -0.0625 11.625 C-0.05798828 10.50738281 -0.05347656 9.38976562 -0.04882812 8.23828125 C-0.03709244 5.49213196 -0.02067363 2.74609414 0 0 Z " fill="#93C643" transform="translate(194,47)"/>
<path d="M0 0 C1.423125 0.433125 1.423125 0.433125 2.875 0.875 C11.22762822 3.22312842 19.27909074 4.68057913 28 4 C28.33 3.67 28.66 3.34 29 3 C31.33297433 2.95907063 33.66705225 2.95758277 36 3 C28.8823667 7.74508887 18.84133821 6.82490487 10.67578125 5.43359375 C2.9988337 3.47592088 2.9988337 3.47592088 0 0 Z " fill="#D53139" transform="translate(333,216)"/>
<path d="M0 0 C0.33 0.66 0.66 1.32 1 2 C0.02083359 3.67899104 -0.98355493 5.34331137 -2 7 C-5.95983658 17.13135446 -6.50061081 26.29249093 -6 37 C-9.79786758 30.97788329 -8.65764365 21.84824293 -7.5 15.07421875 C-5.95815344 9.44122253 -3.35888232 4.75288486 0 0 Z " fill="#D5353C" transform="translate(474,158)"/>
<path d="M0 0 C0.99 0.33 1.98 0.66 3 1 C4.19493974 4.03173281 4.10493955 7.02459427 4.0625 10.25 C4.05347656 11.14203125 4.04445312 12.0340625 4.03515625 12.953125 C4.02355469 13.62859375 4.01195312 14.3040625 4 15 C-1.12054329 8.20543294 -1.12054329 8.20543294 -0.625 3.25 C-0.41875 2.1775 -0.2125 1.105 0 0 Z " fill="#1A7442" transform="translate(166,170)"/>
<path d="M0 0 C2.97 0.495 2.97 0.495 6 1 C5.814375 1.886875 5.62875 2.77375 5.4375 3.6875 C5.01957516 6.85178811 5.19222258 8.94839642 6 12 C5.01 11.67 4.02 11.34 3 11 C3 10.34 3 9.68 3 9 C2.34 9 1.68 9 1 9 C1 8.34 1 7.68 1 7 C0.34 7 -0.32 7 -1 7 C-0.67 4.69 -0.34 2.38 0 0 Z " fill="#3A8D42" transform="translate(158,193)"/>
<path d="M0 0 C2.31 0.33 4.62 0.66 7 1 C7 4.41987028 6.52745657 6.94508687 5 10 C0.07692308 5.69230769 0.07692308 5.69230769 -0.3125 2.1875 C-0.209375 1.465625 -0.10625 0.74375 0 0 Z " fill="#4F9644" transform="translate(153,159)"/>
<path d="M0 0 C2.31 0.66 4.62 1.32 7 2 C7 3.32 7 4.64 7 6 C5.35 6.66 3.7 7.32 2 8 C2 6.68 2 5.36 2 4 C0.68 3.67 -0.64 3.34 -2 3 C-2 3.66 -2 4.32 -2 5 C-2.66 4.67 -3.32 4.34 -4 4 C-2.68 2.68 -1.36 1.36 0 0 Z " fill="#257E3F" transform="translate(298,133)"/>
<path d="M0 0 C1 2 1 2 0.08837891 4.74658203 C-0.27078613 5.82020996 -0.62995117 6.89383789 -1 8 C-1.35811221 10.98788817 -1.35811221 10.98788817 -1.4140625 14.0546875 C-1.45273438 15.16328125 -1.49140625 16.271875 -1.53125 17.4140625 C-1.5621875 18.55617187 -1.593125 19.69828125 -1.625 20.875 C-1.66367188 22.0403125 -1.70234375 23.205625 -1.7421875 24.40625 C-1.83610319 27.27067864 -1.92177983 30.13510692 -2 33 C-2.33 33 -2.66 33 -3 33 C-3.08719631 28.43762069 -3.14045922 23.87545614 -3.1875 19.3125 C-3.21263672 18.01892578 -3.23777344 16.72535156 -3.26367188 15.39257812 C-3.27333984 14.14541016 -3.28300781 12.89824219 -3.29296875 11.61328125 C-3.3086792 10.46641846 -3.32438965 9.31955566 -3.34057617 8.13793945 C-2.96568278 4.68381415 -1.9932068 2.80704211 0 0 Z " fill="#B12027" transform="translate(115,127)"/>
<path d="M0 0 C0.144375 0.61875 0.28875 1.2375 0.4375 1.875 C0.93152225 4.03258322 0.93152225 4.03258322 2 6 C1.21625 6.598125 0.4325 7.19625 -0.375 7.8125 C-3.14574323 9.91085249 -3.14574323 9.91085249 -5 13 C-5.66 11.68 -6.32 10.36 -7 9 C-6.21625 8.2575 -5.4325 7.515 -4.625 6.75 C-2.43495469 4.45566682 -1.17268614 2.87841142 0 0 Z " fill="#6BA25A" transform="translate(244,111)"/>
<path d="M0 0 C2.97 0.495 2.97 0.495 6 1 C5.6875 2.875 5.6875 2.875 5 5 C4.01 5.66 3.02 6.32 2 7 C0.80767387 9.05003955 0.80767387 9.05003955 0 11 C-1.65 11 -3.3 11 -5 11 C-2.14723863 8.06799526 0.65079784 5.35684596 4 3 C2.68 2.34 1.36 1.68 0 1 C0 0.67 0 0.34 0 0 Z " fill="#69A15C" transform="translate(243,99)"/>
<path d="M0 0 C7.92 0 15.84 0 24 0 C24 0.33 24 0.66 24 1 C17.4 1.33 10.8 1.66 4 2 C4 3.65 4 5.3 4 7 C1.23609263 4.59660228 0.95934081 3.83736322 0 0 Z " fill="#FEEAEC" transform="translate(334,191)"/>
<path d="M0 0 C2 2 2 2 2.125 4.2421875 C2.04191339 5.99219923 1.95858152 7.74219934 1.875 9.4921875 C2.00903258 12.18121618 2.63553219 13.70812047 4 16 C3.01 16.66 2.02 17.32 1 18 C0.66666667 16.33333333 0.33333333 14.66666667 0 13 C-0.2784375 11.700625 -0.2784375 11.700625 -0.5625 10.375 C-1.24481829 6.67098642 -0.7867857 3.63888384 0 0 Z " fill="#29833E" transform="translate(162,180)"/>
<path d="M0 0 C0 0.33 0 0.66 0 1 C-0.96421875 1.04898438 -1.9284375 1.09796875 -2.921875 1.1484375 C-4.18515625 1.22320312 -5.4484375 1.29796875 -6.75 1.375 C-8.62945312 1.47941406 -8.62945312 1.47941406 -10.546875 1.5859375 C-13.69891256 1.96389675 -15.29903653 2.50981326 -18 4 C-20.66353755 4.51520982 -23.29499131 4.72949913 -26 5 C-25 3 -25 3 -23.2421875 2.1484375 C-15.40668067 -0.41167859 -8.1638617 -0.29389902 0 0 Z " fill="#CF343B" transform="translate(511,145)"/>
<path d="M0 0 C6.00477279 0.64916463 11.400781 2.85795003 17 5 C16.01 5.495 16.01 5.495 15 6 C14.67 6.66 14.34 7.32 14 8 C9.38 5.69 4.76 3.38 0 1 C0 0.67 0 0.34 0 0 Z " fill="#DCF4CF" transform="translate(227,84)"/>
<path d="M0 0 C0.66 0 1.32 0 2 0 C4.42857143 7.42857143 4.42857143 7.42857143 3 11 C1.5 9.625 1.5 9.625 0 8 C0 7.34 0 6.68 0 6 C-0.66 6 -1.32 6 -2 6 C-1.34 4.02 -0.68 2.04 0 0 Z " fill="#20774C" transform="translate(283,136)"/>
<path d="M0 0 C0.66 2.64 1.32 5.28 2 8 C2.66 8 3.32 8 4 8 C3.67 8.99 3.34 9.98 3 11 C-0.24732932 9.37633534 -0.70155136 6.24612161 -2 3 C-3.65 4.32 -5.3 5.64 -7 7 C-7.66 6.67 -8.32 6.34 -9 6 C-7.8803014 4.99406757 -6.7540588 3.9954151 -5.625 3 C-4.68527344 2.1646875 -4.68527344 2.1646875 -3.7265625 1.3125 C-2 0 -2 0 0 0 Z " fill="#599D46" transform="translate(307,124)"/>
<path d="M0 0 C4.75 0.75 4.75 0.75 7 3 C5.68 3 4.36 3 3 3 C3 4.65 3 6.3 3 8 C0.9375 6.25 0.9375 6.25 -1 4 C-0.75 1.75 -0.75 1.75 0 0 Z " fill="#66A549" transform="translate(150,156)"/>
<path d="M0 0 C0.99 0.33 1.98 0.66 3 1 C3.33 2.65 3.66 4.3 4 6 C1.03 5.67 -1.94 5.34 -5 5 C-3.35 3.35 -1.7 1.7 0 0 Z " fill="#3B8C3F" transform="translate(301,129)"/>
<path d="M0 0 C1.32 0.33 2.64 0.66 4 1 C2.7934375 2.0828125 2.7934375 2.0828125 1.5625 3.1875 C-1.02292072 6.02515689 -1.68042813 7.27166147 -2 11 C-2.99 10.34 -3.98 9.68 -5 9 C-3.7508258 5.54074837 -2.32472205 2.85306797 0 0 Z " fill="#7BAA62" transform="translate(234,112)"/>
<path d="M0 0 C0.9075 0.103125 1.815 0.20625 2.75 0.3125 C0.17215154 2.96002004 -2.16648098 5.25682065 -5.25 7.3125 C-5.91 6.6525 -6.57 5.9925 -7.25 5.3125 C-4.05 0.38942308 -4.05 0.38942308 0 0 Z " fill="#7DAE59" transform="translate(230.25,96.6875)"/>
<path d="M0 0 C0.2358396 5.77807024 -0.13216954 10.51324804 -2 16 C-3.53166168 11.91556885 -2.63081652 8.20544343 -2 4 C-2.66 3.67 -3.32 3.34 -4 3 C-1.125 0 -1.125 0 0 0 Z " fill="#FAC2C6" transform="translate(268,206)"/>
<path d="M0 0 C-2.475 3.465 -2.475 3.465 -5 7 C-5.99 5.68 -6.98 4.36 -8 3 C-5.45189726 -0.82215411 -4.39145359 -1.46381786 0 0 Z " fill="#54974C" transform="translate(301,125)"/>
<path d="M0 0 C0.33 0.66 0.66 1.32 1 2 C0.01 3.32 -0.98 4.64 -2 6 C-1.030625 6.28875 -0.06125 6.5775 0.9375 6.875 C4 8 4 8 5 10 C1.7 9.34 -1.6 8.68 -5 8 C-3.8141763 4.62496331 -2.72426311 2.35277269 0 0 Z " fill="#C82D34" transform="translate(217,232)"/>
<path d="M0 0 C0.94875 0.04125 1.8975 0.0825 2.875 0.125 C1.885 0.785 0.895 1.445 -0.125 2.125 C-2.6690846 4.27768697 -3.55807299 5.83682333 -4.125 9.125 C-4.785 8.465 -5.445 7.805 -6.125 7.125 C-5.66604657 2.53546569 -4.9886353 0.19954541 0 0 Z " fill="#E9F8D9" transform="translate(227.125,92.875)"/>
<path d="M0 0 C1.125 3.75 1.125 3.75 0 6 C1.36125 5.4740625 1.36125 5.4740625 2.75 4.9375 C6.00591313 3.99829429 6.92749994 4.04485324 10 5 C8.56445975 5.50559908 7.1264798 6.0042749 5.6875 6.5 C4.48673828 6.91765625 4.48673828 6.91765625 3.26171875 7.34375 C1 8 1 8 -2 8 C-1.47731534 5.23723823 -0.89130413 2.6739124 0 0 Z " fill="#BF363C" transform="translate(157,239)"/>
<path d="M0 0 C0 0.66 0 1.32 0 2 C-4.64849515 4.3992233 -8.91086074 4.19957409 -14 4 C-14 3.34 -14 2.68 -14 2 C-12.04200486 1.66468585 -10.08359226 1.33180857 -8.125 1 C-6.48917969 0.7215625 -6.48917969 0.7215625 -4.8203125 0.4375 C-2 0 -2 0 0 0 Z " fill="#D03138" transform="translate(258,231)"/>
<path d="M0 0 C0.66 0.33 1.32 0.66 2 1 C0.453125 2.984375 0.453125 2.984375 -2 5 C-5.453125 5.390625 -5.453125 5.390625 -9.25 5.25 C-10.51328125 5.21390625 -11.7765625 5.1778125 -13.078125 5.140625 C-14.52445313 5.07101563 -14.52445313 5.07101563 -16 5 C-16 4.67 -16 4.34 -16 4 C-15.09636719 3.87882813 -14.19273437 3.75765625 -13.26171875 3.6328125 C-12.08222656 3.46523437 -10.90273437 3.29765625 -9.6875 3.125 C-8.51574219 2.96257812 -7.34398437 2.80015625 -6.13671875 2.6328125 C-2.85469105 2.17699379 -2.85469105 2.17699379 0 0 Z " fill="#D6444A" transform="translate(259,196)"/>
<path d="M0 0 C0.33 0.99 0.66 1.98 1 3 C-1.64 5.64 -4.28 8.28 -7 11 C-7.33 10.34 -7.66 9.68 -8 9 C-6.85459775 7.68712379 -5.70866567 6.37470979 -4.5625 5.0625 C-3.92441406 4.33160156 -3.28632813 3.60070312 -2.62890625 2.84765625 C-1.77458541 1.87860647 -0.91348825 0.91348825 0 0 Z " fill="#EAF6DE" transform="translate(231,98)"/>
<path d="M0 0 C2.20914 3.31371 2.22481553 4.3446021 2.125 8.1875 C2.10695313 9.08855469 2.08890625 9.98960938 2.0703125 10.91796875 C2.03550781 11.94857422 2.03550781 11.94857422 2 13 C1.34 13 0.68 13 0 13 C-0.96661363 9.87819599 -0.98988909 7.47916205 -0.5625 4.25 C-0.46066406 3.45078125 -0.35882813 2.6515625 -0.25390625 1.828125 C-0.17011719 1.22484375 -0.08632813 0.6215625 0 0 Z " fill="#37805E" transform="translate(286,112)"/>
<path d="M0 0 C3 1 3 1 4.25 2.75 C5.17574966 5.52724898 4.77341204 7.21571665 4 10 C0 4 0 4 0 0 Z " fill="#E1F7EC" transform="translate(164,178)"/>
<path d="M0 0 C0.99 0.33 1.98 0.66 3 1 C2.34 3.64 1.68 6.28 1 9 C0.34 8.67 -0.32 8.34 -1 8 C-1.75 5.0625 -1.75 5.0625 -2 2 C-1.34 1.34 -0.68 0.68 0 0 Z " fill="#3B8A41" transform="translate(160,162)"/>
<path d="M0 0 C3.82946843 1.45255699 5.12050295 3.42895561 7 7 C6.01 7.33 5.02 7.66 4 8 C0 3.375 0 3.375 0 0 Z " fill="#D7F1DD" transform="translate(159,171)"/>
<path d="M0 0 C2.97 0 5.94 0 9 0 C9 1.65 9 3.3 9 5 C9.99 5.33 10.98 5.66 12 6 C10.68 6.99 9.36 7.98 8 9 C8 6.36 8 3.72 8 1 C5.36 1 2.72 1 0 1 C0 0.67 0 0.34 0 0 Z " fill="#F8A3A7" transform="translate(404,146)"/>
<path d="M0 0 C0.66 0.33 1.32 0.66 2 1 C-0.64 3.64 -3.28 6.28 -6 9 C-6.33 8.34 -6.66 7.68 -7 7 C-2.25 1.125 -2.25 1.125 0 0 Z " fill="#FFE4E6" transform="translate(343,163)"/>
<path d="M0 0 C-1.5830577 4.2742558 -4.50568404 6.26531794 -8 9 C-6.68994234 5.06982701 -4.75047804 0 0 0 Z " fill="#FDDFE1" transform="translate(237,164)"/>
<path d="M0 0 C0.66 0 1.32 0 2 0 C2 0.99 2 1.98 2 3 C2.66 3.33 3.32 3.66 4 4 C1.69 4.66 -0.62 5.32 -3 6 C-2.42655063 3.13275314 -2.1385485 2.1385485 0 0 Z " fill="#BDD7BA" transform="translate(248,118)"/>
<path d="M0 0 C0.66 0 1.32 0 2 0 C2.33 1.65 2.66 3.3 3 5 C1.02 5.99 1.02 5.99 -1 7 C-0.67 4.69 -0.34 2.38 0 0 Z " fill="#27833D" transform="translate(162,164)"/>
<path d="M0 0 C0.66 0.33 1.32 0.66 2 1 C0.68 4.3 -0.64 7.6 -2 11 C-3 7 -3 7 -2 5 C-2.66 5 -3.32 5 -4 5 C-2.93453047 2.86906094 -1.70840281 1.63412443 0 0 Z " fill="#F4DCDC" transform="translate(172,200)"/>
<path d="M0 0 C0.66 0.33 1.32 0.66 2 1 C-0.31 3.64 -2.62 6.28 -5 9 C-5.33 8.34 -5.66 7.68 -6 7 C-4.02 4.69 -2.04 2.38 0 0 Z " fill="#D0313A" transform="translate(299,147)"/>
<path d="M0 0 C0.99 0 1.98 0 3 0 C3.33 1.32 3.66 2.64 4 4 C3.01 4.33 2.02 4.66 1 5 C0.34 4.67 -0.32 4.34 -1 4 C-0.67 2.68 -0.34 1.36 0 0 Z " fill="#F0FAE2" transform="translate(219,111)"/>
<path d="M0 0 C0.33 0 0.66 0 1 0 C1 1.65 1 3.3 1 5 C0.01 5.33 -0.98 5.66 -2 6 C-2.33 6.99 -2.66 7.98 -3 9 C-3.66 8.67 -4.32 8.34 -5 8 C-4.19185349 6.66402348 -3.37836819 5.331275 -2.5625 4 C-2.11003906 3.2575 -1.65757812 2.515 -1.19140625 1.75 C-0.79824219 1.1725 -0.40507812 0.595 0 0 Z " fill="#D22F36" transform="translate(266,220)"/>
<path d="M0 0 C1.32 0.33 2.64 0.66 4 1 C3.67 2.65 3.34 4.3 3 6 C2.34 6 1.68 6 1 6 C0.67 4.02 0.34 2.04 0 0 Z " fill="#12753D" transform="translate(296,136)"/>
</svg>
